<svg width="321" height="48" viewBox="0 0 321 48" fill="none" xmlns="http://www.w3.org/2000/svg">
    <path d="M94.992 23.026C94.992 20.8767 95.4363 18.965 96.325 17.291C97.2343 15.5963 98.5157 14.284 100.169 13.354C101.822 12.4033 103.724 11.928 105.873 11.928C108.601 11.928 110.895 12.6617 112.755 14.129C114.615 15.5757 115.814 17.5493 116.351 20.05H109.81C109.417 19.2233 108.87 18.593 108.167 18.159C107.485 17.725 106.689 17.508 105.78 17.508C104.375 17.508 103.248 18.0143 102.401 19.027C101.574 20.019 101.161 21.352 101.161 23.026C101.161 24.7207 101.574 26.0743 102.401 27.087C103.248 28.079 104.375 28.575 105.78 28.575C106.689 28.575 107.485 28.358 108.167 27.924C108.87 27.49 109.417 26.8597 109.81 26.033H116.351C115.814 28.5337 114.615 30.5177 112.755 31.985C110.895 33.4317 108.601 34.155 105.873 34.155C103.724 34.155 101.822 33.69 100.169 32.76C98.5157 31.8093 97.2343 30.497 96.325 28.823C95.4363 27.1283 94.992 25.196 94.992 23.026ZM133.147 16.454C135.131 16.454 136.702 17.1257 137.859 18.469C139.037 19.7917 139.626 21.5897 139.626 23.863V34H133.55V24.669C133.55 23.677 133.292 22.902 132.775 22.344C132.259 21.7653 131.566 21.476 130.698 21.476C129.789 21.476 129.076 21.7653 128.559 22.344C128.043 22.902 127.784 23.677 127.784 24.669V34H121.708V11.06H127.784V19.089C128.322 18.3037 129.045 17.6733 129.954 17.198C130.884 16.702 131.949 16.454 133.147 16.454ZM144.448 25.289C144.448 23.491 144.768 21.9203 145.409 20.577C146.07 19.2337 146.959 18.2003 148.075 17.477C149.212 16.7537 150.472 16.392 151.857 16.392C153.056 16.392 154.089 16.6297 154.957 17.105C155.825 17.5803 156.497 18.221 156.972 19.027V16.609H163.048V34H156.972V31.582C156.497 32.388 155.815 33.0287 154.926 33.504C154.058 33.9793 153.035 34.217 151.857 34.217C150.472 34.217 149.212 33.8553 148.075 33.132C146.959 32.4087 146.07 31.3753 145.409 30.032C144.768 28.668 144.448 27.087 144.448 25.289ZM156.972 25.289C156.972 24.173 156.662 23.2947 156.042 22.654C155.443 22.0133 154.699 21.693 153.81 21.693C152.901 21.693 152.146 22.0133 151.547 22.654C150.948 23.274 150.648 24.1523 150.648 25.289C150.648 26.405 150.948 27.2937 151.547 27.955C152.146 28.5957 152.901 28.916 153.81 28.916C154.699 28.916 155.443 28.5957 156.042 27.955C156.662 27.3143 156.972 26.4257 156.972 25.289ZM175.066 19.678C175.748 18.686 176.575 17.9007 177.546 17.322C178.518 16.7433 179.561 16.454 180.677 16.454V22.933H178.972C177.65 22.933 176.668 23.1913 176.027 23.708C175.387 24.2247 175.066 25.1237 175.066 26.405V34H168.99V16.609H175.066V19.678ZM188.405 14.997C187.33 14.997 186.462 14.7077 185.801 14.129C185.16 13.5297 184.84 12.7857 184.84 11.897C184.84 10.9877 185.16 10.2333 185.801 9.634C186.462 9.03467 187.33 8.735 188.405 8.735C189.459 8.735 190.306 9.03467 190.947 9.634C191.608 10.2333 191.939 10.9877 191.939 11.897C191.939 12.7857 191.608 13.5297 190.947 14.129C190.306 14.7077 189.459 14.997 188.405 14.997ZM191.412 16.609V34H185.336V16.609H191.412ZM204.761 34.217C203.19 34.217 201.785 33.9587 200.545 33.442C199.325 32.9047 198.354 32.1813 197.631 31.272C196.928 30.342 196.535 29.2983 196.453 28.141H202.343C202.425 28.699 202.684 29.133 203.118 29.443C203.552 29.753 204.089 29.908 204.73 29.908C205.226 29.908 205.618 29.8047 205.908 29.598C206.197 29.3913 206.342 29.1227 206.342 28.792C206.342 28.358 206.104 28.0377 205.629 27.831C205.153 27.6243 204.368 27.397 203.273 27.149C202.033 26.901 200.999 26.622 200.173 26.312C199.346 26.002 198.623 25.4957 198.003 24.793C197.403 24.0903 197.104 23.1397 197.104 21.941C197.104 20.9077 197.383 19.9777 197.941 19.151C198.499 18.3037 199.315 17.632 200.39 17.136C201.485 16.64 202.797 16.392 204.327 16.392C206.6 16.392 208.388 16.95 209.69 18.066C210.992 19.182 211.746 20.6493 211.953 22.468H206.466C206.362 21.91 206.114 21.4863 205.722 21.197C205.35 20.887 204.843 20.732 204.203 20.732C203.707 20.732 203.324 20.825 203.056 21.011C202.808 21.197 202.684 21.4553 202.684 21.786C202.684 22.1993 202.921 22.5197 203.397 22.747C203.872 22.9537 204.637 23.1707 205.691 23.398C206.951 23.6667 207.995 23.9663 208.822 24.297C209.669 24.6277 210.403 25.165 211.023 25.909C211.663 26.6323 211.984 27.6243 211.984 28.885C211.984 29.8977 211.684 30.807 211.085 31.613C210.506 32.419 209.669 33.0597 208.574 33.535C207.499 33.9897 206.228 34.217 204.761 34.217ZM224.86 34.217C223.289 34.217 221.884 33.9587 220.644 33.442C219.425 32.9047 218.453 32.1813 217.73 31.272C217.027 30.342 216.635 29.2983 216.552 28.141H222.442C222.525 28.699 222.783 29.133 223.217 29.443C223.651 29.753 224.188 29.908 224.829 29.908C225.325 29.908 225.718 29.8047 226.007 29.598C226.296 29.3913 226.441 29.1227 226.441 28.792C226.441 28.358 226.203 28.0377 225.728 27.831C225.253 27.6243 224.467 27.397 223.372 27.149C222.132 26.901 221.099 26.622 220.272 26.312C219.445 26.002 218.722 25.4957 218.102 24.793C217.503 24.0903 217.203 23.1397 217.203 21.941C217.203 20.9077 217.482 19.9777 218.04 19.151C218.598 18.3037 219.414 17.632 220.489 17.136C221.584 16.64 222.897 16.392 224.426 16.392C226.699 16.392 228.487 16.95 229.789 18.066C231.091 19.182 231.845 20.6493 232.052 22.468H226.565C226.462 21.91 226.214 21.4863 225.821 21.197C225.449 20.887 224.943 20.732 224.302 20.732C223.806 20.732 223.424 20.825 223.155 21.011C222.907 21.197 222.783 21.4553 222.783 21.786C222.783 22.1993 223.021 22.5197 223.496 22.747C223.971 22.9537 224.736 23.1707 225.79 23.398C227.051 23.6667 228.094 23.9663 228.921 24.297C229.768 24.6277 230.502 25.165 231.122 25.909C231.763 26.6323 232.083 27.6243 232.083 28.885C232.083 29.8977 231.783 30.807 231.184 31.613C230.605 32.419 229.768 33.0597 228.673 33.535C227.598 33.9897 226.327 34.217 224.86 34.217Z" fill="white"/>
    <path d="M267 12L320.694 48H213.306L267 12Z" fill="white"/>
    <path d="M54.7194 36.2803L0.000105864 0.303647L109.063 1.87626e-05C87.8404 14.1683 75.9418 22.112 54.7194 36.2803Z" fill="white"/>
</svg>
